<?xml version="1.0" standalone="no"?>
<!DOCTYPE svg PUBLIC "-//W3C//DTD SVG 1.1//EN" "http://www.w3.org/Graphics/SVG/1.1/DTD/svg11.dtd">
<svg xmlns="http://www.w3.org/2000/svg">
<metadata>Copyright (C) 2016 by original authors @ fontello.com</metadata>
<defs>
<font id="social-icons" horiz-adv-x="1000" >
<font-face font-family="social-icons" font-weight="400" font-stretch="normal" units-per-em="1000" ascent="850" descent="-150" />
<missing-glyph horiz-adv-x="1000" />
<glyph glyph-name="add" unicode="&#xe800;" d="M500 800c-248 0-450-202-450-450s201-450 450-450c248 0 450 202 450 450s-202 450-450 450z m0-837c-213 0-387 174-387 387s174 387 387 387c213 0 387-174 387-387s-174-387-387-387z m207 423h-175v176c0 18-14 31-32 31-18 0-32-13-32-31v-176h-175c-18 0-32-13-32-31s14-32 32-32h175v-175c0-18 14-32 32-32 18 0 32 14 32 32v175h175c18 0 32 14 32 32s-14 31-32 31z" horiz-adv-x="1000" />

<glyph glyph-name="bag" unicode="&#xe801;" d="M846 565c-3 15-16 26-31 26h-179v73c0 75-61 136-136 136-75 0-136-61-136-136v-73h-179c-15 0-28-11-31-26l-104-628c-1-10 1-19 7-26 7-7 15-11 24-11h838c0 0 0 0 0 0 18 0 32 14 32 32 0 4-1 7-1 10l-104 623z m-419 99c0 40 33 73 73 73s73-33 73-73v-73h-146v73z m-308-701l93 565h152v-178c0-18 14-32 31-32 18 0 32 14 32 32v178h146v-178c0-18 14-32 32-32 18 0 31 14 31 32v178h152l93-565h-762z" horiz-adv-x="1000" />

<glyph glyph-name="battery" unicode="&#xe802;" d="M389 541c-18 0-32-14-32-32v-322c0-18 14-32 32-32 18 0 32 14 32 32v322c0 18-15 32-32 32z m-153 0c-18 0-32-14-32-32v-322c0-18 14-32 32-32s31 14 31 32v322c0 18-14 32-31 32z m-155-505h673c17 0 31 14 31 32v135h134c17 0 31 14 31 32v232c0 18-14 32-31 32h-134v133c0 18-14 32-31 32h-673c-17 0-31-14-31-32v-564c0-17 14-32 31-32z m704 399h102v-169h-102v169z m-672 165h609v-133-232-135h-609v500z" horiz-adv-x="1000" />

<glyph glyph-name="bell" unicode="&#xe803;" d="M637 556c0 134-108 243-242 243s-243-109-243-243 109-242 243-242 242 109 242 242z m-421 0c0 99 80 179 179 179s178-80 178-179-80-178-178-178-179 80-179 178z m510-89c-66 0-121-54-121-121 0-48 28-89 69-109-27-68-77-124-142-157v3c0 18-14 32-32 32h-211c-18 0-32-14-32-32v-150c0-18 14-32 32-32h211c18 0 32 14 32 32v76c97 39 171 118 206 216 61 6 110 58 110 121-1 67-55 121-122 121z m-258-432c-1-3-1-6 0-9v-61h-146v87h146v-17z m258 254c-31 0-57 25-57 57s26 58 57 58 58-26 58-58-26-57-58-57z" horiz-adv-x="1000" />

<glyph glyph-name="bluetooth" unicode="&#xe804;" d="M953 562c0 12-7 23-18 28l-421 210c-10 5-22 5-31-1-9-6-15-16-15-27v-369l-374 187c-16 8-35 2-43-14-8-15-1-34 14-42l364-182-364-183c-15-7-22-27-14-42 6-11 17-18 29-18 5 0 9 1 14 3l374 188v-369c0-11 6-21 15-28 5-3 11-4 17-4 5 0 10 1 14 3l421 210c11 5 18 16 18 29s-7 23-18 28l-364 183 364 181c11 5 18 16 18 29z m-421-579v317l318-159-318-158z m0 420v318l318-159-318-159z" horiz-adv-x="1000" />

<glyph glyph-name="bookmark" unicode="&#xe805;" d="M313-90l187 188 187-188c6-7 14-10 22-10 4 0 8 1 13 3 11 4 19 16 19 29v836c0 18-14 32-32 32h-418c-18 0-32-14-32-32v-836c0-13 8-24 19-29 13-5 27-3 35 7z m10 826h354v-727l-155 157c-6 6-14 9-23 9-8 0-16-3-22-9l-155-157v727z" horiz-adv-x="1000" />

<glyph glyph-name="briefcase" unicode="&#xe806;" d="M81-28h837c18 0 32 14 32 32v565c0 17-14 31-32 31h-243v96c0 18-14 32-32 32h-286c-18 0-32-14-32-32v-96h-244c-17 0-31-14-31-32v-564c0-18 14-32 31-32z m307 692h224v-64h-224v64z m-275-127h236c2-1 5-1 7-1 2 0 5 0 7 1h273c2-1 4-1 7-1 2 0 4 0 7 1h235v-219h-210v38c0 18-14 32-32 32-17 0-31-14-31-32v-38h-224v38c0 18-14 32-31 32s-32-14-32-32v-38h-212v219z m0-282h212v-36c0-18 14-32 32-32s31 14 31 32v36h224v-36c0-18 14-32 31-32 18 0 32 14 32 32v36h212v-219h-774v219z" horiz-adv-x="1000" />

<glyph glyph-name="calendar" unicode="&#xe807;" d="M81-66h837c18 0 32 14 32 32v710c0 17-14 31-32 31h-157v28c0 17-14 31-32 31-18 0-32-14-32-31v-28h-389v28c0 17-14 31-32 31-18 0-32-14-32-31v-28h-163c-17 0-31-14-31-31v-711c0-17 14-31 31-31z m32 710h131v-17c0-18 14-32 32-32 18 0 32 14 32 32v17h389v-17c0-18 14-32 32-32 18 0 32 14 32 32v17h126v-82h-774v82z m0-146h773v-501h-773v501z m616-146h-458c-17 0-31-14-31-31 0-18 14-32 31-32h458c18 0 32 14 32 32 0 17-14 31-32 31z m-229-153h-229c-17 0-31-14-31-32 0-18 14-32 31-32h229c18 0 32 14 32 32 0 18-14 32-32 32z" horiz-adv-x="1000" />

<glyph glyph-name="cancel-1" unicode="&#xe808;" d="M500-100c248 0 450 201 450 450s-202 450-450 450-450-202-450-450 202-450 450-450z m0 837c213 0 387-174 387-387s-174-387-387-387-387 174-387 387 174 387 387 387z m-169-551c6-6 14-10 23-10s16 4 22 10l124 124 124-124c6-6 14-10 23-10s16 4 22 10c12 12 12 32 0 45l-124 124 124 124c12 12 12 32 0 45s-33 12-45 0l-124-124-124 124c-12 12-33 12-45 0-12-13-12-33 0-45l124-124-124-124c-12-13-12-33 0-45z" horiz-adv-x="1000" />

<glyph glyph-name="cancel" unicode="&#xe809;" d="M59-91c6-6 14-9 22-9s17 3 23 9l396 396 396-396c6-6 14-9 23-9 7 0 16 3 22 9 13 12 13 32 0 45l-396 396 396 396c13 13 13 33 0 45s-32 13-45 0l-396-396-396 396c-12 13-33 13-45 0s-12-32 0-45l396-396-396-396c-12-13-12-33 0-45z" horiz-adv-x="1000" />

<glyph glyph-name="clip" unicode="&#xe80a;" d="M468 399c13 12 13 32 0 45s-32 12-45 0l-168-168c-29-29-44-66-44-107 0-40 15-77 44-106 59-59 154-59 212 0l380 380c40 40 62 92 62 148s-22 109-62 148c-82 82-214 82-297 0l-379-379c-51-51-79-118-79-191 0-72 28-140 79-190 52-52 119-79 191-79 72 0 140 27 191 79l168 168c12 12 12 33 0 45s-33 12-45 0l-168-168c-39-39-91-61-146-61s-107 22-146 61-60 90-60 145 22 107 60 146l379 379c28 28 65 43 103 43 39 0 76-16 104-43 28-28 42-64 42-103s-15-76-42-103l-380-380c-34-33-89-33-123 0-16 16-25 38-25 61 0 24 9 45 25 62l169 168z" horiz-adv-x="1000" />

<glyph glyph-name="clock-1" unicode="&#xe80b;" d="M126 519c-24-52-38-109-38-170 0-99 36-193 100-267l-129-130c-12-12-12-32 0-45 6-6 14-9 22-9 8 0 17 3 23 9l129 130c74-64 168-99 267-99 102 0 195 38 267 100l128-130c7-6 14-9 23-9 8 0 16 3 22 9 13 12 13 33 0 45l-128 130c62 72 99 165 99 267 0 61-13 118-37 170 45 26 76 76 76 131 0 84-69 152-152 152-55 0-105-30-131-77-51 23-108 36-168 36-59 0-116-14-167-36-27 47-76 77-131 77-83-2-151-69-151-153 0-55 30-104 76-131z m672 219c49 0 89-39 89-88 0-31-16-60-43-75-1 1-1 1-1 2-6 8-11 16-17 23-3 4-6 8-8 11-8 10-16 20-26 28-4 6-10 10-15 15-6 5-11 10-16 15-6 4-11 7-17 11-5 5-11 9-18 13-1 0-2 1-3 3 16 25 44 42 75 42z m-517-118c7 5 14 11 21 15 2 1 3 3 5 3 55 38 122 59 193 59 71 0 137-22 192-59 2-1 3-2 6-3 7-5 14-11 20-16 1-2 3-2 5-4 7-7 15-13 23-21 7-7 13-14 20-21 1-3 4-5 5-7 5-6 10-12 14-18 1-3 3-5 5-7 36-55 58-121 58-193 0-90-35-172-91-234-6-2-10-4-15-8-4-4-6-9-8-15-62-56-144-91-234-91-95 0-184 38-250 106-64 65-98 151-98 242 0 71 22 137 58 192 2 2 3 5 5 7 4 6 8 12 13 18 2 2 3 4 5 6 14 15 28 30 44 43 1 3 3 5 4 6z m-79 118c31 0 59-17 75-42-2-1-3-2-4-3-6-4-12-9-17-13-6-4-11-7-16-12-6-5-10-9-16-14-7-6-13-12-20-19-8-8-16-17-23-25-3-4-5-8-8-12-6-8-12-15-16-22-1-1-1-2-2-3-25 16-43 44-43 75 1 51 41 90 90 90z m298-421h136c18 0 32 14 32 32 0 18-14 32-32 32h-104v165c0 18-14 32-32 32s-32-14-32-32v-197c0-17 14-32 32-32z" horiz-adv-x="1000" />

<glyph glyph-name="clock" unicode="&#xe80c;" d="M500-98c248 0 449 202 449 449 0 248-202 449-449 449s-449-201-449-449c0-247 201-449 449-449z m0 835c213 0 386-173 386-386 0-213-173-386-386-386s-386 173-386 386c0 213 173 386 386 386z m-21-439h150c18 0 32 14 32 32 0 18-14 32-32 32h-118v184c0 18-14 32-32 32s-32-14-32-32v-216c0-18 14-32 32-32z" horiz-adv-x="1000" />

<glyph glyph-name="cloud" unicode="&#xe80d;" d="M634 667c-153 0-281-108-310-254-26 11-56 16-85 15-105-5-188-94-188-204 0-105 86-191 192-191h406c166 0 301 135 301 302 0 0 0 1 0 2 0 5 1 8 1 13 0 175-142 317-317 317z m253-325v-6c0-2 0-4 0-6-2-130-109-233-238-233h-406c-71 0-128 57-128 127 0 74 57 137 127 140 2 0 5 0 6 0 30 0 58-10 82-28 10-7 22-8 33-4 11 5 18 16 18 27 6 137 117 244 253 244 140 0 254-114 254-254 0-2 0-4-1-7z" horiz-adv-x="1000" />

<glyph glyph-name="correct" unicode="&#xe80e;" d="M314 376c-12 13-33 13-45 0-12-12-12-32 0-45l147-146c6-6 14-9 22-9 1 0 1 0 2 0 8 0 17 4 23 11l367 440c10 13 9 33-4 45-14 11-34 9-45-4l-345-413-122 121z m423 355c-178 112-407 86-556-63-175-175-175-461 0-637 88-87 204-131 318-131s231 44 318 131c150 150 175 380 63 558-9 15-29 19-44 10-14-9-19-29-10-44 97-153 75-350-54-479-150-150-396-150-546 0-151 151-151 397 0 547 128 128 324 150 478 55 15-9 34-5 43 10 10 15 5 34-10 43z" horiz-adv-x="1000" />

<glyph glyph-name="credit-card" unicode="&#xe80f;" d="M238 268h105c18 0 31 14 31 32s-13 31-31 31h-105c-18 0-32-14-32-32s15-31 32-31z m681 396h-837c-18 0-32-14-32-32v-197c0-3 0-5 0-7s0-5 0-7v-352c0-18 14-32 32-32h837c17 0 31 14 31 32v563c0 17-14 32-31 32z m-32-564h-773v296h773v-296z m0 359h-773v141h773v-141z" horiz-adv-x="1000" />

<glyph glyph-name="cursor-1" unicode="&#xe810;" d="M750 266l175 56c12 4 21 15 22 28 0 13-7 25-17 31l-835 416c-12 7-26 4-36-5-9-9-12-24-6-37l403-833c5-11 16-18 29-18 0 0 1 0 2 0 13 1 24 10 28 22l64 192 203-203c12-12 33-12 45 0l116 116c12 12 12 32 0 45l-193 190z m53-285l-217 217c-6 6-14 9-22 9-3 0-5 0-7 0-11-3-20-10-23-21l-56-167-328 681 681-341-150-48c-11-3-19-11-21-22-3-11 1-22 8-30l206-206-71-72z" horiz-adv-x="1000" />

<glyph glyph-name="cursor" unicode="&#xe811;" d="M385 221l99-298c4-13 15-21 28-22 0 0 1 0 2 0 12 0 23 7 29 18l403 835c6 12 3 27-6 36-10 10-24 12-37 6l-835-418c-11-5-18-18-17-31 1-13 10-24 22-28l312-98z m464 477l-330-681-79 238c-4 10-11 18-21 21l-253 80 683 342z" horiz-adv-x="1000" />

<glyph glyph-name="cut" unicode="&#xe812;" d="M293 173c-75 0-136-62-136-137s61-136 136-136c73 0 132 57 136 128l70 167 71-165c4-72 63-130 136-130 76 0 137 62 137 138s-61 137-137 137c-43 0-82-20-108-52l-65 153 203 479c7 16-1 35-17 41-17 8-35 0-42-16l-179-422-180 422c-7 17-26 24-42 17-16-7-23-26-16-42l204-479-65-155c-25 32-63 52-106 52z m73-136c0-41-33-73-73-73-40 0-73 32-73 73s33 73 73 73c40 0 72-33 73-73z m340 75c41 0 74-33 74-74s-33-73-74-73-73 33-73 73 32 74 73 74z" horiz-adv-x="1000" />

<glyph glyph-name="cutlery" unicode="&#xe813;" d="M330 800c-69 0-123-69-123-159 0-74 37-135 89-154v-553c0-19 16-34 34-34 19 0 34 15 34 34v553c52 19 90 79 90 154 0 89-55 159-124 159z m0-250c-25 0-55 37-55 91 0 53 29 90 55 90 26 0 55-37 55-90 0-54-29-91-55-91z m429 250c-19 0-34-15-34-34v-214h-21v214c0 19-16 34-34 34s-34-15-34-34v-214h-20v214c0 19-16 34-35 34s-34-15-34-34v-249c0-18 16-34 34-34h55v-549c0-18 15-34 34-34s34 16 34 34v549h55c19 0 34 15 34 34v249c1 19-15 34-34 34z" horiz-adv-x="1000" />

<glyph glyph-name="down-arrow" unicode="&#xe814;" d="M940 582c-12 12-32 12-45 0l-395-396-396 396c-12 12-33 12-45 0-12-13-12-33 0-45l418-418c6-6 14-9 22-9 8 0 17 3 23 9l418 418c13 12 13 32 0 45z" horiz-adv-x="1000" />

<glyph glyph-name="download" unicode="&#xe815;" d="M477 20c3-3 7-6 11-7 0 0 0 0 0 0 4-2 8-2 13-2s8 0 12 2c0 0 0 0 1 0 4 1 8 4 11 7l441 441c13 13 13 34 0 47-13 13-34 13-47 0l-386-384v642c0 19-14 34-33 34-19 0-33-15-33-34v-642l-384 384c-13 13-34 13-47 0-13-13-13-34 0-47l441-441z m-418-120h882c19 0 33 14 33 33 0 19-14 33-33 33h-882c-19 0-33-14-33-33 0-18 14-33 33-33z" horiz-adv-x="1000" />

<glyph glyph-name="edit" unicode="&#xe816;" d="M924-36h-848c-18 0-32-15-32-32s15-32 32-32h849c18 0 32 15 32 32s-15 32-33 32z m-880 281l-1-151c0-8 4-17 10-23 6-6 14-9 22-9l151 0c8 0 16 4 22 10l519 519c13 13 13 33 0 46l-148 150c-13 13-33 13-46 0l-104-104-415-415c-6-6-10-14-10-23z m552 474l105-105-59-59-105 105 59 59z m-487-488l383 383 104-104-383-382-105-1 1 104z" horiz-adv-x="1000" />

<glyph glyph-name="envelope" unicode="&#xe817;" d="M50-10c0-1 0-1 1-3 0-1 1-2 1-3 0-1 1-1 1-3 1-1 1-2 1-3 1-1 1-2 2-2 1-1 1-2 1-3 1-1 2-1 3-2 0 0 1-1 1-1 0 0 0 0 0-1 3-2 6-4 9-4 1 0 1 0 1-1 3-1 7-2 10-2l0 0h836l0 0c3 0 6 1 9 2 1 0 1 0 2 1 3 1 6 3 8 4 0 0 1 0 1 1 0 0 1 1 1 1 1 1 2 1 2 2 1 1 2 2 2 3 1 0 1 1 1 2 1 1 1 1 2 3 1 1 1 2 1 3 0 1 1 2 1 3 0 1 0 2 0 3 0 1 0 3 0 3 0 1 0 1 0 2v710c0 18-14 32-31 32h-835c-17 0-31-14-31-32v-710c0-1 0-1 0-2 0 0 0-1 0-3z m100 37l235 280 97-68c6-4 12-5 18-5 6 0 12 1 18 5l98 68 234-280h-700z m737 56l-220 261 219 153v-414z m-773 590h773v-100l-386-269-387 269v100z m0-176l219-153-219-261v414z" horiz-adv-x="1000" />

<glyph glyph-name="export" unicode="&#xe818;" d="M919 255c-18 0-32-13-32-31v-260h-774v773h260c18 0 32 14 32 32s-14 31-32 31h-292c-17 0-31-14-31-31v-837c0-18 14-32 31-32h837c18 0 32 14 32 32v292c0 17-14 31-31 31z m29 525c-4 8-10 14-18 18 0 0 0 0 0 0-4 2-8 2-12 2h-419c-18 0-32-14-32-31s14-32 32-32h342l-364-364c-13-13-13-33 0-45 6-7 14-10 22-10 8 0 17 3 23 10l364 364v-342c0-18 14-32 32-32 18 0 32 14 32 32v419c0 4-1 7-2 11z" horiz-adv-x="1000" />

<glyph glyph-name="favorite" unicode="&#xe819;" d="M951 416c-2 11-11 19-21 23l-261 88-139 256c-6 11-18 17-29 17-12 0-23-6-29-17l-139-255-262-80c-10-3-19-11-21-22-3-11 0-22 7-31l173-188-72-266c-3-12 1-25 10-33 10-8 23-11 34-6l299 119 299-119c4-2 8-2 12-2 8 0 16 3 22 8 9 9 13 21 10 33l-71 266 170 179c7 8 11 19 8 30z m-238-178c-8-8-11-20-8-31l60-220-252 99c-4 2-8 3-12 3-4 0-9-1-13-3l-251-100 60 221c3 10 0 22-8 30l-149 164 225 68c9 2 16 7 20 15l116 215 116-215c4-7 10-12 19-15l225-76-148-155z" horiz-adv-x="1000" />

<glyph glyph-name="file" unicode="&#xe81a;" d="M145-100h710c18 0 32 14 32 32v837c0 17-14 31-32 31h-532c-3 0-6 0-8 0-1 0-2-1-2-1-2-1-4-2-6-2-1-1-2-1-2-2-3-2-5-3-7-5l-177-210c-2-2-4-5-5-8-1-1-1-3-1-3-1-3-1-5-2-7 0-1 0-1 0-2v-627c0-19 15-33 32-33z m146 782v-92h-78l78 92z m-114-154h146c17 0 31 14 31 31v178h469v-773h-646v564z m552-69h-458c-17 0-31-14-31-32 0-18 14-32 31-32h458c18 0 32 14 32 32 0 18-14 32-32 32z m0-154h-458c-17 0-31-14-31-32 0-18 14-31 31-31h458c18 0 32 13 32 31 0 17-14 32-32 32z" horiz-adv-x="1000" />

<glyph glyph-name="folder" unicode="&#xe81b;" d="M81-41h837c18 0 32 14 32 32v616c0 17-14 31-32 31h-404l-75 84c-6 7-15 11-23 11h-335c-17 0-31-14-31-32v-710c0-18 14-32 31-32z m32 710h289l75-84c6-7 15-11 23-11h387v-553h-774v648z" horiz-adv-x="1000" />

<glyph glyph-name="forward" unicode="&#xe81c;" d="M479 115c4-1 8-2 13-2 8 0 16 3 22 9l205 206c7 6 10 14 10 22s-3 16-10 23l-206 205c-9 9-22 12-35 7-11-5-19-16-19-30v-110l-133 133c-9 9-22 12-34 7-12-5-20-16-20-30v-410c0-14 8-25 20-30 3-1 7-2 12-2 8 0 16 3 22 9l134 133v-110c-1-13 7-24 19-30z m44 217v36 111l128-129-128-129v111z m-187-111v258l124-124v-10l-124-124z" horiz-adv-x="1000" />

<glyph glyph-name="gallery" unicode="&#xe81d;" d="M50-76c0 0 0-1 0 0 0-1 0-1 0-1 1-2 2-4 3-6 0 0 1 0 1-1 0-1 0-1 0-2 0 0 1 0 1 0 1-2 2-3 3-4 0 0 1-1 1-1 1-1 1-1 2-2 0 0 0 0 0 0 1-1 2-1 3-2 0 0 0-1 0-1 0 0 1 0 1-1 1 0 2 0 3-1 1 0 1 0 2-1 1 0 1-1 1-1 3 0 5 0 7 0h839c18 0 32 14 32 31v210 627c0 18-14 32-32 32h-836c-18 0-32-14-32-32v-626-209c0-2 1-6 1-8 0-1 0-1 0-1z m838 40h-701l518 339 183-175v-164z m-776 772h776v-520l-158 150c-11 10-27 12-39 4l-148-97-103 103c-11 11-28 13-40 5l-288-181v536z m0-612l300 190 76-77-376-246v133z" horiz-adv-x="1000" />

<glyph glyph-name="gamepad" unicode="&#xe81e;" d="M636 596h-106v104c0 17-14 31-32 31-18 0-32-14-32-31v-104h-102c-173 0-314-141-314-313 0-173 140-314 313-314l273-1c173 0 314 140 314 313 0 174-140 315-314 315z m0-565l-273 1c-138 0-251 113-250 251 0 138 113 251 251 250l272-1c138 0 251-112 250-250s-112-251-250-251z m-279 282h-37v36c0 18-14 32-32 32s-31-14-31-32v-36h-37c-18 0-32-14-32-32 0-18 14-32 32-32h37v-36c0-18 14-32 31-32 18 0 32 14 32 32v36h37c17 0 31 14 31 32 0 18-14 32-31 32z" horiz-adv-x="1000" />

<glyph glyph-name="garbage" unicode="&#xe81f;" d="M81 608h35l82-680c1-16 15-28 32-28h541c16 0 29 12 31 28l82 680h35c17 0 31 14 31 32s-14 32-31 32h-64-180v97c0 17-14 31-32 31h-286c-18 0-32-14-32-31v-97h-180-64c-17 0-31-14-31-32s14-32 31-32z m307 129h224v-65h-224v65z m431-129l-76-645h-486l-76 645h638z m-424-548c17 0 31 14 31 32v381c0 17-14 31-31 31-18 0-32-14-32-31v-381c0-18 14-32 32-32z m210 0c18 0 32 14 32 32v381c0 17-14 31-32 31s-31-14-31-31v-381c0-18 14-32 31-32z" horiz-adv-x="1000" />

<glyph glyph-name="headphones" unicode="&#xe820;" d="M500 800c-247 0-449-201-449-448v-36-70-309c0-18 14-32 32-32h164c17 0 31 14 31 32v379c0 18-14 32-31 32h-132v4c0 212 173 386 386 386s386-173 386-386v-4h-132c-18 0-32-14-32-32v-379c0-18 14-32 32-32h164c17 0 31 14 31 32v309 70 36c-1 247-203 448-450 448z m-285-516v-316h-101v278 39h101z m671-39v-277h-100v315h100v-38z" horiz-adv-x="1000" />

<glyph glyph-name="heart" unicode="&#xe821;" d="M943 539c-26 129-117 212-235 212-66 0-137-27-207-78-71 52-142 79-209 79-118 0-210-83-235-214-37-193 83-449 432-589 4-1 8-2 12-2 4 0 8 1 11 2 349 143 468 399 431 590z m-442-526c-307 127-413 349-382 514 19 98 87 163 173 163 58 0 124-28 189-82 11-9 28-9 39 0 65 52 130 79 188 79 86 0 153-63 173-160 31-164-74-385-380-514z" horiz-adv-x="1000" />

<glyph glyph-name="help" unicode="&#xe822;" d="M54 297c0-11 2-21 4-30 1-4 2-8 3-12 5-26 13-51 24-75 1-4 3-8 4-11 4-9 8-17 13-26 2-4 3-8 6-12 4-8 10-17 15-25 2-2 3-6 6-8 1-1 1-1 1-2 1-1 2-2 2-3 12-17 26-34 42-51 0 0 0 0 0-1 1-2 3-3 4-4 3-3 7-6 10-9 1-1 2-3 4-4 0 0 0-1 0-1 17-16 34-30 53-44 1 0 2-1 2-1 12-8 24-15 36-22 2-1 5-3 8-4 9-5 19-10 29-14 3-1 6-2 9-4 25-10 51-18 77-24 3 0 7-1 10-2 10-1 20-4 31-5 4 0 8 0 12-1 14-2 27-2 41-2 94 0 181 28 252 77 0 0 1 0 1 1 11 7 21 15 31 23 1 2 3 3 4 4 7 6 14 12 21 19l3 4c4 3 7 6 10 9l4 4c4 4 7 8 10 12 4 5 9 9 12 14 8 9 15 19 22 29 0 0 0 1 1 1 49 72 79 159 79 254 0 14-1 28-3 41 0 4 0 8-1 12-2 10-3 20-5 31-1 3-1 7-2 10-6 26-14 52-24 77-2 3-3 6-4 9-5 10-9 19-14 29-2 2-2 6-4 8-7 12-14 24-22 36 0 0-1 1-2 2-5 8-12 15-17 23 0 1 0 1-1 2-1 0-1 1-1 2-20 26-44 48-69 69-1 1-2 2-3 2 0 0 0 0-1 0-7 6-14 11-21 16-1 1-2 1-2 1-1 1-2 1-3 2-2 1-5 3-8 5-8 5-17 10-26 15-4 2-8 4-12 6-8 5-17 9-25 13-4 1-7 3-11 4-25 10-50 18-77 24-4 1-7 2-11 3-10 1-20 3-31 4-3 1-7 1-12 2-14 1-27 2-41 2-95 0-182-29-254-79 0 0-1 0-1-1-9-5-16-11-24-17-1-1-2-1-2-2-25-20-48-43-69-69 0-1-1-2-1-2-7-8-14-17-20-26 0 0 0-1 0-1-49-72-78-159-78-252 0-14 1-28 2-41 3-6 3-11 4-14z m208-251c-10 9-20 17-30 26l-10 10c-9 8-17 18-25 28l121 121c17-26 39-48 64-64l-120-121z m84 304c0 19 4 36 9 53 2 5 4 10 6 14 3 5 5 10 8 14 18 28 43 49 74 62 18 7 36 10 55 10 5 0 11 0 15-1 3 0 6-1 10-2 1 0 3 0 4 0 4-1 9-2 13-3 0 0 0 0 1 0 5-2 9-3 13-5 42-16 75-49 90-91 2-4 3-8 4-12 0 0 0-1 0-1 1-4 2-8 2-12 0-1 1-3 1-4 1-3 1-6 2-9 1-4 1-9 1-14 0-19-4-38-11-55-11-31-33-57-61-74-4-3-9-6-14-8-4-2-10-5-14-6-17-6-35-9-53-9-5 0-9 0-14 0-3 0-6 1-9 2-1 0-3 1-4 1-4 0-8 1-12 2 0 0-1 0-1 0-4 2-8 2-12 4-42 15-75 48-91 90-1 4-3 8-4 13 0 0 0 1 0 1-1 4-3 7-4 12 0 2 0 3 0 5-1 3-1 6-2 9-2 4-2 9-2 14z m154-387c-12 0-24 1-36 2-2 0-4 0-7 0-11 2-22 4-33 6-1 0-3 1-5 1-11 2-21 4-32 7-1 0-2 1-3 1-11 3-22 8-33 12-1 1-3 1-4 2-11 5-21 10-32 16l129 129c1 0 2 0 3 0 7-1 14-3 21-4 2 0 4-1 6-1 8-1 17-2 25-2 20 0 37 3 55 7l130-129c-54-30-117-47-184-47z m301 144c-5-5-9-10-14-15-3-3-6-7-9-10l-10-9c-6-7-12-13-19-18-2-2-4-3-6-5-1-2-3-2-4-4l-122 121c0 0 1 0 1 1 5 4 11 8 16 12 1 0 2 0 2 1 18 14 32 31 45 50l121-121c0-1 0-2-1-3z m39 428c5-11 10-21 15-32 1-2 2-3 2-5 5-11 9-22 12-32 0-1 1-2 1-4 3-10 6-20 8-31 0-2 1-3 1-6 2-11 4-22 6-33 0-2 0-5 0-7 1-12 2-23 2-36 0-67-18-131-48-187l-130 130c6 19 8 38 8 58 0 9-1 18-1 26 0 2-1 4-1 5-1 8-3 15-5 23 0 0 0 1 0 1l130 130z m-100 117l62-62c1 0 1 0 2-1l-121-122c-16 26-38 47-64 64l121 121z m-240 85c12 0 24-1 36-2 2 0 4 0 7 0 11-2 22-4 33-6 2 0 4-1 5-1 11-3 20-5 30-8 1-1 4-1 5-2 11-3 21-7 31-11 3-1 5-3 7-3 9-4 18-8 27-13 1-1 3-1 4-2 1 0 1-1 2-1l-129-129c-1 0-1 0-2 1-8 2-16 4-23 5-3 0-4 1-7 1-8 0-17 1-27 1-20 0-39-3-58-8l-128 129c56 31 120 49 187 49z m-302-147l63 62 120-121c-18-12-35-27-49-45-1-1-1-2-2-2-4-5-7-11-11-16 0 0 0-1-1-1l-122 121c1 1 1 2 2 2z m-37-55l129-130c-5-18-7-36-7-55 0-9 1-18 2-27 0-2 0-4 0-6 2-8 3-16 5-24 0 0 0-1 1-2l-129-128c0 1-1 1-1 2 0 1-1 3-2 5-5 9-9 17-12 26-1 2-3 4-4 7-3 10-7 20-11 31-1 2-1 4-2 6-3 9-5 19-7 29-1 1-1 4-2 5-2 11-4 22-5 33 0 3-1 5-1 8-1 12-2 23-2 36 0 66 17 129 48 184z" horiz-adv-x="1000" />

<glyph glyph-name="home" unicode="&#xe823;" d="M81-100h310c1 0 4 0 5 0h209c2 0 4 0 6 0h307c18 0 32 14 32 32v419c0 2 0 4-1 6 0 2-1 2-2 4 0 1 0 1 0 1-1 2-2 4-3 4 0 1-1 1-1 2 0 1-2 3-3 5l-419 418c-12 13-33 13-45 0l-419-418c-1-2-3-4-3-5 0-1-1-1-1-2-1-1-2-2-3-4 0 0 0-1 0-2-1-1-1-2-2-4-1-2-1-4-1-6v-419c3-17 17-31 34-31z m493 64h-146v146h146v-146z m-74 760l342-342h-684l342 342z m-387-406h773v-355h-249v179c0 17-14 31-32 31h-209c-18 0-32-14-32-31v-178h-251v354z" horiz-adv-x="1000" />

<glyph glyph-name="hourglass" unicode="&#xe824;" d="M166 76c-13-3-23-16-23-30v-113c0-18 14-32 32-32h650c18 0 32 14 32 32v113c0 14-10 27-23 30-11 122-87 224-192 274 105 50 181 152 192 274 13 4 23 16 23 30v113c0 18-14 32-32 32h-650c-18 0-32-14-32-32v-113c0-14 10-26 23-30 11-122 87-224 192-274-106-50-181-152-192-274z m627-111h-586v49h585v-49z m-585 770h585v-49h-585v49z m22-113h541c-16-135-131-240-271-240s-253 105-270 240z m271-304c139 0 254-105 270-240h-541c17 135 131 240 271 240z" horiz-adv-x="1000" />

<glyph glyph-name="info" unicode="&#xe825;" d="M500-100c248 0 450 201 450 449s-202 450-450 450-450-202-450-450 202-449 450-449z m0 837c213 0 387-174 387-387s-174-387-387-387-387 174-387 387 174 387 387 387z m-75-585c-18 0-32-14-32-32s14-32 32-32h208c18 0 32 14 32 32s-14 32-32 32h-72v279c0 18-14 32-32 32h-104c-18 0-32-14-32-32 0-17 14-31 32-31h73v-248h-73z" horiz-adv-x="1000" />

<glyph glyph-name="layer" unicode="&#xe826;" d="M920-36h-808v805c0 17-14 31-32 31s-32-14-32-31v-837c0-18 14-32 32-32h840c18 0 32 14 32 32s-14 32-32 32z m0 836h-694c-17 0-31-14-31-31v-690c0-18 14-32 31-32h694c18 0 32 14 32 32v690c0 17-14 31-32 31z m-32-690h-630v627h630v-627z" horiz-adv-x="1000" />

<glyph glyph-name="layout" unicode="&#xe827;" d="M81 393h344c18 0 32 14 32 32v344c0 17-14 31-32 31h-344c-17 0-31-14-31-31v-344c0-17 14-32 31-32z m32 344h280v-280h-280v280z m837 32c0 17-14 31-31 31h-344c-18 0-32-14-32-31v-344c0-18 14-32 32-32h344c17 0 31 14 31 32v344z m-63-312h-280v280h280v-280z m-806-557h344c18 0 32 14 32 31v344c0 18-14 32-32 32h-344c-17 0-31-14-31-32v-344c0-17 14-31 31-31z m32 343h280v-280h-280v280z m806 64h-344c-18 0-32-14-32-32v-344c0-17 14-31 32-31h344c17 0 31 14 31 31v344c0 17-14 32-31 32z m-32-344h-280v280h280v-280z" horiz-adv-x="1000" />

<glyph glyph-name="left-arrow-1" unicode="&#xe828;" d="M500-100c248 0 450 201 450 450s-201 450-450 450-450-202-450-450 202-450 450-450z m0 837c213 0 387-174 387-387s-174-387-387-387-387 174-387 387 174 387 387 387z m43-612c6-6 14-9 22-9 8 0 16 3 23 9 12 13 12 33 0 45l-183 182 183 183c12 12 12 32 0 45s-33 12-45 0l-205-205c-6-6-9-14-9-23s3-16 9-22l205-205z" horiz-adv-x="1000" />

<glyph glyph-name="left-arrow" unicode="&#xe829;" d="M687-90c6-7 14-10 22-10s17 3 23 10c12 12 12 32 0 45l-396 395 396 395c12 13 12 33 0 45s-33 13-45 0l-419-417c-12-13-12-33 0-45l419-418z" horiz-adv-x="1000" />

<glyph glyph-name="lightning" unicode="&#xe82a;" d="M445-97c4-2 8-3 12-3 10 0 20 5 26 14l333 481c7 9 7 22 2 33-6 10-16 17-28 17l-206 1 59 316c4 14-4 29-17 35-14 7-29 3-38-9l-353-444c-8-9-9-23-4-33 5-11 16-18 29-18l228-2-62-353c-3-15 5-30 19-35z m-120 452l232 293-43-228c-2-9 1-19 7-27 6-7 15-11 24-11l184-1-217-313 43 249c2 10-1 19-7 26-5 7-14 11-23 11l-200 1z" horiz-adv-x="1000" />

<glyph glyph-name="link" unicode="&#xe82b;" d="M278 442l-191-192c-50-50-50-129 0-179l134-134c24-24 56-37 90-37 34 0 66 13 90 37l191 192c24 24 37 56 37 90 0 2 0 2-1 4 2 0 2-1 4-1 34 0 66 13 90 37l192 193c50 49 50 129 0 179l-134 134c-24 23-56 36-90 36s-65-13-89-37l-192-191c-24-25-38-56-38-90 0-2 0-3 1-4-1 0-2 1-4 1-34 0-66-14-90-38z m179 82l193 192c11 11 25 17 41 17s30-6 41-17l134-134c22-23 22-59 0-82l-193-192c-22-22-60-22-81 0l-43 43 39 39c13 13 13 35 0 48-14 14-36 14-49 0l-39-38-43 42c-10 11-17 26-17 41s7 30 17 41z m-48-131l42-42-39-39c-13-13-13-36 0-49 7-7 16-10 24-10s18 3 25 10l38 39 43-43c11-11 17-25 17-41 0-15-6-30-17-41l-192-192c-22-22-60-22-82 0l-133 135c-23 22-23 59 0 81l192 192c11 11 26 18 41 18 15 0 30-7 41-18z" horiz-adv-x="1000" />

<glyph glyph-name="logout" unicode="&#xe82c;" d="M687 118c6-6 14-9 22-9s17 3 23 9l209 210c2 1 3 3 4 4 0 0 1 1 1 2 1 1 1 3 2 4 0 0 0 1 1 1 1 2 1 3 1 4 1 2 1 4 1 6 0 3 0 4-1 6 0 2 0 4-1 4 0 1 0 2-1 2-1 1-1 3-2 5 0 0 0 0-1 0-1 2-2 3-4 5l-209 209c-13 13-33 13-45 0-13-12-13-32 0-45l155-155h-551c-18 0-32-14-32-32 0-17 14-31 32-31h551l-155-155c-13-11-13-31 0-44z m-606-218h419c18 0 32 14 32 32v313c0 17-14 31-32 31s-32-14-32-31v-281h-355v773h355v-281c0-18 14-32 32-32s32 14 32 32v313c0 17-14 31-32 31h-419c-17 0-31-14-31-31v-837c0-18 14-32 31-32z" horiz-adv-x="1000" />

<glyph glyph-name="magnet" unicode="&#xe82d;" d="M54-69c0-17 14-31 32-31h164c17 0 31 14 31 31v424c0 121 99 219 220 219 121 0 219-98 219-219v-420c0-17 14-32 32-32h163c17 0 32 14 32 32v419c0 246-200 446-446 446s-447-200-447-446v-423z m829 35h-100v100h100v-100z m-766 388c0 211 172 383 383 383 211 0 383-172 383-383v-225h-100v226c0 156-126 282-282 282s-283-126-283-282v-226h-101v225z m0-288h100v-103h-100v103z" horiz-adv-x="1000" />

<glyph glyph-name="map" unicode="&#xe82e;" d="M927 714l-279 85c-1 0-1 0-1 0-2 0-3 1-4 1-2 0-3 0-4 0-2 0-3 0-4 0-2 0-2 0-4-1-1 0-1 0-1 0l-269-82-270 82c-10 3-20 1-28-5-8-6-13-15-13-25v-752c0-14 9-27 22-31l279-84c3-1 6-2 10-2 3 0 6 1 9 2l270 81 269-81c3-1 7-2 10-2 7 0 13 3 18 7 8 6 13 15 13 25v752c0 14-9 26-23 30z m-598-740l-216 65v687l216-65v-687z m279 66l-216-66v686l216 66v-686z m279-66l-216 65v687l216-65v-687z" horiz-adv-x="1000" />

<glyph glyph-name="menu" unicode="&#xe82f;" d="M709 590h-417c-18 0-32-14-32-31 0-18 14-32 32-32h417c18 0 32 14 32 32-1 17-15 31-32 31z m0-417h-417c-18 0-32-14-32-32 0-18 14-32 32-32h417c18 0 32 14 32 32-1 18-15 32-32 32z m0 209h-417c-18 0-32-14-32-32 0-18 14-32 32-32h417c18 0 32 14 32 32-1 18-15 32-32 32z" horiz-adv-x="1000" />

<glyph glyph-name="monitor" unicode="&#xe830;" d="M919 769h-838c-17 0-31-14-31-32v-401-163c0-18 14-32 31-32h387v-146h-177c-18 0-32-14-32-32s14-32 32-32h418c18 0 32 14 32 32s-14 32-32 32h-177v146h387c17 0 31 14 31 32v163 401c0 18-14 32-31 32z m-32-565h-774v101h774v-101z m0 164h-774v337h774v-337z" horiz-adv-x="1000" />

<glyph glyph-name="moon" unicode="&#xe831;" d="M843 640c13 2 23 11 26 23 3 12-1 25-10 33-81 68-184 106-290 106-249 0-452-202-452-452s202-452 452-452c112 0 219 42 303 117 9 9 13 22 9 33s-14 21-26 22c-144 17-253 140-253 285-1 144 101 263 241 285z m-306-284c0-153 99-286 241-333-62-40-135-61-209-61-214 0-388 174-388 387s175 388 388 388c69 0 136-19 195-53-134-49-227-178-227-328z" horiz-adv-x="1000" />

<glyph glyph-name="padnote" unicode="&#xe832;" d="M698 881h-381c-18 0-32-14-32-32v-44h-140c-18 0-32-14-32-32v-837c0-18 14-32 32-32h710c18 0 32 14 32 32v837c0 18-14 32-32 32h-125v44c0 18-14 32-32 32z m-349-108v44h317v-44-56h-317v56z m474-31v-774h-646v774h108v-56c0-18 14-32 32-32h381c18 0 32 14 32 32v56h93z m-87-411h-458c-17 0-31-14-31-32 0-18 14-32 31-32h458c18 0 32 14 32 32 0 18-14 32-32 32z m-228-154h-230c-17 0-31-14-31-32s14-31 31-31h229c18 0 32 14 32 31s-14 32-31 32z m-261 276c0-18 14-32 31-32h458c18 0 32 14 32 32s-14 32-32 32h-458c-17 0-31-15-31-32z" horiz-adv-x="1000" />

<glyph glyph-name="paint" unicode="&#xe833;" d="M500-100c18 0 32 15 32 32v273h286c18 0 32 15 32 32v114 417c0 18-15 32-32 32h-156c-1 0-1 0-2 0-1 0-2 0-3 0h-154c-1 0-1 0-2 0s-2 0-3 0h-155c0 0-1 0-2 0-1 0-1 0-2 0h-158c-17 0-31-15-31-32v-417-113c0-18 14-32 31-32h286v-273c0-19 15-33 33-33z m-286 835h95v-112c0-18 14-32 31-32 18 0 32 15 32 32v112h96v-183c0-18 15-32 32-32 18 0 32 15 32 32v183h94v-112c0-18 15-32 32-32 18 0 32 15 32 32v112h95v-352h-571v352z m0-466v50h572v-50h-572z" horiz-adv-x="1000" />

<glyph glyph-name="pause" unicode="&#xe834;" d="M500-100c249 0 450 202 450 450s-201 450-450 450-450-201-450-450 201-450 450-450z m0 838c213 0 388-174 388-388s-174-388-388-388-388 174-388 388 175 388 388 388z m-83-622c18 0 32 14 32 32v411c0 18-14 32-32 32-18 0-32-14-32-32v-411c0-18 14-32 32-32z m166 0c18 0 32 14 32 32v411c0 18-14 32-32 32-18 0-32-14-32-32v-411c0-18 14-32 32-32z" horiz-adv-x="1000" />

<glyph glyph-name="photo-camera" unicode="&#xe835;" d="M81-100h837c18 0 32 14 32 31v419 419c0 17-14 31-32 31h-837c-17 0-31-14-31-31v-419-419c0-17 14-31 31-31z m251 837h554v-355h-157c-16 112-113 200-229 200-66 0-126-28-168-73v228z m168-219c92 0 168-75 168-168s-75-168-168-168-168 75-168 168 76 168 168 168z m-387 219h155v-355h-155v355z m0-419h158c16-112 113-200 229-200s213 88 229 200h157v-355h-773v355z m556 275h82c18 0 32 14 32 32s-14 32-32 32h-82c-18 0-32-14-32-32s14-32 32-32z m-169-363c67 0 120 54 120 120s-53 120-120 120-120-53-120-120 53-120 120-120z m0 177c32 0 57-25 57-57s-25-57-57-57-57 25-57 57 25 57 57 57z" horiz-adv-x="1000" />

<glyph glyph-name="placeholder" unicode="&#xe836;" d="M500 800c-198 0-359-161-359-359 0-24 2-48 7-72 0-1 1-3 1-5 39-178 318-444 329-455 7-6 14-9 22-9 8 0 16 3 22 9 11 11 288 277 328 451 0 2 0 3 0 5 6 25 8 50 8 76 1 198-160 359-358 359z m288-424c0-1 0 0 0-2-29-129-222-332-288-398-66 66-260 269-289 401 0 2 0 3-1 4-4 20-6 40-6 61 0 162 132 296 295 296 163 0 296-133 296-296 0-23-2-45-7-66z m-288 222c-67 0-120-54-120-120s54-120 120-120 120 53 120 120-53 120-120 120z m0-177c-32 0-57 25-57 57s25 57 57 57c32 0 57-25 57-57s-25-57-57-57z" horiz-adv-x="1000" />

<glyph glyph-name="play-button" unicode="&#xe837;" d="M500-101c249 0 451 202 451 451s-202 451-451 451-451-202-451-451 202-451 451-451z m0 839c214 0 388-174 388-388s-174-388-388-388-388 175-388 388 174 388 388 388z m-88-621c4-1 7-2 12-2 9 0 16 3 23 9l204 206c6 6 10 14 10 22s-4 17-10 23l-205 205c-10 10-23 12-35 7-12-4-19-16-19-29v-411c0-12 7-24 20-30z m43 364l129-129-129-128v257z" horiz-adv-x="1000" />

<glyph glyph-name="power" unicode="&#xe838;" d="M500-100c248 0 450 202 450 450 0 212-145 392-351 439-17 4-34-7-38-24s7-34 24-38c178-40 302-195 302-377 0-213-174-387-387-387s-387 174-387 387c0 181 123 336 299 377 18 4 28 21 24 38-3 17-20 28-38 24-205-47-348-228-348-439 0-248 202-450 450-450z m-32 868v-418c0-18 14-32 32-32 18 0 32 14 32 32v418c0 18-14 32-32 32-18 0-32-14-32-32z" horiz-adv-x="1000" />

<glyph glyph-name="presentation" unicode="&#xe839;" d="M82 573h51v-369c0-18 14-31 31-31h117l-144-224c-9-15-5-34 10-43 5-3 10-5 17-5 10 0 21 6 26 15l165 257h288l166-258c6-9 16-15 26-15 6 0 12 2 17 5 15 9 19 29 9 43l-142 225h117c18 0 31 13 31 31v369h51c18 0 32 14 32 32v164c0 17-14 31-32 31h-836c-18 0-32-14-32-31v-164c0-18 14-32 32-32z m722-338h-134c-7 3-14 3-21 0h-309c0 0-1 0-3 0h-141v338h609v-338z m-692 502h773v-100h-50-671-51v100z m178-440c8 0 16 3 22 10l51 50 104-27c11-3 24 1 32 10l106 126c11 13 9 33-4 45-13 11-34 9-45-4l-93-110-102 26c-11 3-23 0-31-9l-63-63c-13-13-13-33 0-45 7-6 14-9 23-9z" horiz-adv-x="1000" />

<glyph glyph-name="printer" unicode="&#xe83a;" d="M81 36h178v-105c0-17 14-31 32-31h418c18 0 32 14 32 31v105h178c17 0 31 14 31 32v564c0 18-14 32-31 32h-178v105c0 17-14 31-32 31h-418c-18 0-32-14-32-31v-105h-178c-17 0-31-14-31-32v-564c0-17 14-32 31-32z m597-73h-355v262h355v-262z m-355 774h355v-73h-355v73z m-210-137h178 418 178v-500h-146v125h57c18 0 32 14 32 32s-14 32-32 32h-89-418-88c-18 0-32-14-32-32s14-32 32-32h57v-125h-147v500z m555-163h82c18 0 32 14 32 32s-14 31-32 31h-82c-18 0-32-14-32-31s14-32 32-32z" horiz-adv-x="1000" />

<glyph glyph-name="profile" unicode="&#xe83b;" d="M498 295c140 0 253 113 253 253s-113 252-253 252-252-114-252-252 113-253 252-253z m0 439c103 0 187-84 187-186s-84-186-187-186-186 83-186 186 84 186 186 186z m-437-834h878c18 0 33 15 33 34 0 174-142 317-317 317h-310c-174 0-317-142-317-317 0-19 15-34 33-34z m284 284h310c127 0 232-94 248-217h-806c16 122 121 217 248 217z" horiz-adv-x="1000" />

<glyph glyph-name="prohibition" unicode="&#xe83c;" d="M500 800c-248 0-450-202-450-450 0-123 50-235 131-316 0 0 0-1 0-2 0 0 1 0 1-1 82-81 194-131 318-131 248 0 450 201 450 449s-202 451-450 451z m-387-450c0 213 174 386 387 386 95 0 182-35 250-91l-545-545c-57 68-92 155-92 250z m387-387c-95 0-183 35-250 92l544 545c57-68 92-155 92-251 1-212-173-386-386-386z" horiz-adv-x="1000" />

<glyph glyph-name="push-pin" unicode="&#xe83d;" d="M464-100c17 0 31 14 31 31v241h272c0 0 0 0 1 0h55c17 0 31 14 31 32 0 17-14 31-31 31h-29l-94 502h76c18 0 32 14 32 32s-14 31-32 31h-114-397-114c-18 0-32-14-32-31s14-32 32-32h76l-94-502h-28c-18 0-32-14-32-31 0-18 14-32 32-32h55 273v-241c-1-17 13-31 31-31z m-266 335l94 501h344l94-501h-532z" horiz-adv-x="1000" />

<glyph glyph-name="puzzle" unicode="&#xe83e;" d="M898 747c-33 33-77 52-124 52-48 0-92-19-125-52-15-15-26-32-35-50l-92 92c-13 12-33 12-44 0l-419-419c-12-12-12-32 0-44l419-419c6-6 14-9 22-9 9 0 16 3 23 9l133 134c8 8 11 21 7 33-5 12-15 19-27 20-27 3-53 14-72 33-22 21-34 50-34 80 0 31 12 59 34 81 21 22 50 33 80 33 30 0 59-11 81-33 19-19 31-45 32-72 1-12 9-23 21-27 11-5 24-2 33 7l129 129c7 6 10 14 10 23 0 8-3 16-10 22l-92 92c19 9 36 21 50 35 69 69 69 182 0 250z m-44-205c-18-18-42-30-69-32-12-2-22-10-26-21-4-12-2-24 8-33l107-108-68-68c-8 20-21 38-36 53-34 33-78 52-125 52-47 0-91-19-125-52-33-33-52-78-52-125 0-47 19-91 52-125 16-15 34-28 53-36l-72-72-375 373 373 374 108-108c9-8 22-11 33-7 11 4 19 14 21 26 2 26 13 50 32 69 22 22 50 33 81 33 30 0 59-11 80-33 44-43 44-116 0-160z" horiz-adv-x="1000" />

<glyph glyph-name="refresh" unicode="&#xe83f;" d="M919 800c-18 0-32-14-32-32v-188c-80 134-225 220-387 220-248 0-450-202-450-451s202-449 450-449 450 201 450 449c0 18-14 32-32 32s-32-14-32-32c0-213-174-387-387-387s-386 175-386 388 174 387 387 387c153 0 289-89 351-226h-222c-18 0-32-14-32-31s14-32 32-32h289c18 0 32 14 32 32v289c0 17-14 31-31 31z" horiz-adv-x="1000" />

<glyph glyph-name="remove" unicode="&#xe840;" d="M500-99c247 0 449 202 449 449s-202 449-449 449-449-202-449-449 202-449 449-449z m0 835c212 0 386-173 386-386s-173-386-386-386-386 174-386 386 174 386 386 386z m-207-413h413c18 0 32 14 32 32s-14 31-32 31h-413c-18 0-32-13-32-31s15-32 32-32z" horiz-adv-x="1000" />

<glyph glyph-name="rewind" unicode="&#xe841;" d="M521 585c-12 5-26 2-35-7l-205-205c-6-7-9-14-9-23s3-16 9-22l206-206c6-6 14-9 22-9 4 0 9 1 13 2 11 5 19 16 19 30v110l133-133c7-6 14-9 23-9 4 0 8 1 12 2 12 5 20 16 20 30v410c0 14-8 25-20 30-11 5-25 2-35-7l-133-133v110c0 13-8 25-20 30z m-44-217v-36-111l-128 129 129 129v-111z m187 111v-258l-124 124v10l124 124z" horiz-adv-x="1000" />

<glyph glyph-name="right-arrow-1" unicode="&#xe842;" d="M500-100c248 0 450 201 450 450s-202 450-450 450-450-202-450-450 202-450 450-450z m0 837c213 0 387-174 387-387s-174-387-387-387-387 174-387 387 174 387 387 387z m-104-612c6-6 14-9 23-9 7 0 16 3 22 9l205 205c6 6 9 14 9 22 0 9-3 17-9 23l-205 205c-12 12-32 12-45 0-12-13-12-33 0-45l182-183-182-182c-12-12-12-32 0-45z" horiz-adv-x="1000" />

<glyph glyph-name="right-arrow" unicode="&#xe843;" d="M313-90c-6-7-14-10-22-10s-17 3-23 10c-12 12-12 32 0 45l396 395-396 395c-12 13-12 33 0 45 13 13 33 13 45 0l418-417c12-13 12-33 0-45l-418-418z" horiz-adv-x="1000" />

<glyph glyph-name="rocket-launch" unicode="&#xe844;" d="M776 27c18 0 32 14 32 32v65c0 63-26 123-72 166 4 21 6 41 6 60 0 221-210 434-219 443-7 6-14 9-23 9-8 0-16-3-22-9-9-10-218-223-218-443 0-19 1-39 4-58-45-44-72-104-72-168v-65c0-18 14-32 32-32s32 14 32 32v65c0 33 10 65 27 92 9-29 22-59 38-89 5-11 16-17 29-17h119v-51c0-18 14-32 32-32 18 0 32 14 32 32v51h120c11 0 22 7 28 17 16 29 28 59 38 87 17-27 26-58 26-90v-65c-1-17 13-32 31-32z m-143 146h-101v51c0 18-14 32-32 32-18 0-32-14-32-32v-51h-99c-18 38-31 75-38 110 0 2-1 4-1 7-4 21-7 41-7 60 0 154 125 313 177 373 53-60 178-219 178-373 0-53-15-113-45-177z m-246 267c0-63 51-115 115-115s114 51 114 115-51 115-114 115-115-52-115-115z m115 50c28 0 51-22 51-51s-23-51-51-51c-28 0-52 23-52 51s24 51 52 51z m-146-560v106c0 18-14 32-32 32-18 0-32-14-32-32v-106c0-18 14-32 32-32 18 0 32 14 32 32z m352 0v106c0 18-14 32-32 32-18 0-32-14-32-32v-106c0-18 14-32 32-32 17 0 32 14 32 32z" horiz-adv-x="1000" />

<glyph glyph-name="screen" unicode="&#xe845;" d="M82 394h343c18 0 32 14 32 32v343c0 17-14 31-32 31h-343c-18 0-32-14-32-31v-343c0-18 14-32 32-32z m31 343h279v-279h-279v279z m805-343c18 0 32 14 32 32v343c0 17-14 31-32 31h-343c-18 0-32-14-32-31v-343c0-18 14-32 32-32h343z m-311 343h279v-279h-279v279z m-525-526c-18 0-32-14-32-31s14-32 32-32l837-1c17 0 31 14 31 32 0 18-14 32-31 32l-837 0c0 0 0 0 0 0z m-1-310l837-1c18 0 32 14 32 32 0 18-14 32-32 32l-837 1c-17 0-31-14-31-32s14-32 31-32z" horiz-adv-x="1000" />

<glyph glyph-name="search" unicode="&#xe846;" d="M400 100c85 0 163 31 223 82l272-272c6-6 14-9 22-9s16 3 23 9c12 13 12 33 0 45l-272 272c51 60 82 139 82 223 0 193-157 350-350 350-192 0-350-158-350-350 0-193 158-350 350-350z m0 636c158 0 286-129 286-286 0-158-128-286-286-286-158 0-286 129-286 286 0 157 129 286 286 286z" horiz-adv-x="1000" />

<glyph glyph-name="settings-1" unicode="&#xe847;" d="M81 444c-17 0-31-14-31-32v-124c0-18 14-32 31-32h59c8-33 21-65 39-94l-40-41c-13-12-13-32 0-45l87-87c13-13 33-13 45 0l41 41c30-17 62-30 95-39v-58c0-18 14-32 32-32h124c18 0 32 14 32 32v59c33 8 64 22 93 39l42-42c13-13 33-13 45 0l88 87c12 13 12 33 0 45l-42 42c17 30 30 61 39 94h59c17 0 31 14 31 32v124c0 18-14 32-31 32h-59c-9 33-22 64-39 93l42 42c12 13 12 33 0 45l-89 87c-12 12-32 12-44 0l-42-41c-29 17-61 30-94 40v58c0 17-14 31-32 31h-124c-18 0-32-14-32-31v-58c-33-9-65-22-94-39l-41 41c-13 12-33 12-45 0l-88-89c-12-12-12-32 0-44l40-41c-17-29-31-61-39-95h-58z m115-37c8 43 25 83 49 118 9 13 7 30-4 41l-36 36 43 43 37-37c10-11 27-12 40-4 36 25 76 41 118 49 15 3 27 16 27 31v52h60v-52c0-15 11-29 26-31 42-8 82-25 118-49 12-8 29-7 40 4l37 37 43-42-37-37c-11-11-13-28-4-41 24-35 40-75 49-118 3-14 16-26 31-26h52v-60h-52c-16 0-29-11-31-26-8-43-24-82-49-118-9-12-7-29 4-40l37-37-43-43-37 37c-11 11-28 13-40 4-36-25-76-41-118-49-15-3-26-16-26-31v-52h-60v52c0 16-11 29-27 31-43 8-82 24-118 49-13 9-30 7-40-4l-37-36-43 40 37 37c11 10 12 27 4 40-25 36-41 76-50 118-3 15-15 26-31 26h-51v61h51c15 0 28 11 31 27z m303-279c120 0 218 97 218 217s-98 218-218 218-218-97-218-218 98-217 218-217z m0 372c86 0 155-69 155-155s-69-154-155-154-154 69-154 154 69 155 154 155z" horiz-adv-x="1000" />

<glyph glyph-name="settings-2" unicode="&#xe848;" d="M919 383h-162c-14 47-58 82-109 82-51 0-95-34-109-82h-458c-17 0-31-14-31-31 0-18 14-32 31-32h457c13-48 57-84 110-84 53 0 97 36 110 84h161c17 0 31 14 31 32 0 17-14 31-31 31z m-271-83c-28 0-51 22-51 50 0 28 22 50 50 50 28 0 51-22 51-50 0-28-22-50-50-50z" horiz-adv-x="1000" />

<glyph glyph-name="settings" unicode="&#xe849;" d="M137-67c0-18 14-32 32-32s32 14 32 32v629c51 14 89 61 89 117 0 66-54 120-120 120s-120-54-120-120c0-55 38-102 88-116v-630z m-25 746c0 31 26 56 57 56s57-25 57-56-26-57-57-57-57 26-57 57z m387 120c-18 0-32-14-32-32v-327c-50-14-87-60-87-116s37-101 87-115v-277c0-18 14-32 32-32 18 0 32 14 32 32v277c51 14 89 60 89 116s-38 103-89 117v325c0 18-14 32-32 32z m58-475c0-31-25-56-56-56s-57 25-57 56 26 57 57 57 56-25 56-57z m304-187v630c0 18-14 32-31 32s-32-14-32-32v-630c-51-14-89-61-89-116 0-66 54-120 121-120s120 54 120 120c0 55-38 102-89 116z m-31-172c-31 0-56 25-56 56 0 31 25 57 56 57s57-26 57-57c0-31-26-56-57-56z" horiz-adv-x="1000" />

<glyph glyph-name="share" unicode="&#xe84a;" d="M335 230c22 0 42 6 60 16l166-166c-11-18-17-38-17-59 0-67 54-121 120-121s121 55 121 121c0 66-55 120-121 120-21 0-41-6-59-17l-165 166c10 18 16 38 16 60s-6 42-16 60l165 165c18-10 38-16 59-16 67 0 121 54 121 120s-55 120-121 120-120-54-120-120c0-22 6-42 17-60l-166-164c-17 10-38 15-60 15-67 0-120-54-120-120s54-120 120-120z m330-153c32 0 58-25 58-57 0-32-26-58-58-58-32 0-57 26-57 58 0 32 25 57 57 57z m0 660c32 0 58-26 58-57s-26-58-58-58c-32 0-57 26-57 58s25 57 57 57z m-330-330c32 0 57-25 57-57s-25-57-57-57-57 25-57 57 26 57 57 57z" horiz-adv-x="1000" />

<glyph glyph-name="shield" unicode="&#xe84b;" d="M916 590c-1 0-195 5-393 201-6 6-14 9-22 9h-3c-9 0-17-3-23-9-196-196-390-201-391-201-17 0-31-14-31-31v-205c0-4 1-8 2-12 6-14 140-345 434-437 3-1 6-2 9-2 1 0 3 0 4 0 3 0 6 1 9 2 294 92 429 423 434 437 2 4 2 8 2 12v205c0 17-14 31-31 31z m-31-230c-18-41-143-312-385-392-242 80-367 351-384 393v169c65 8 220 44 384 197 164-153 319-189 385-197v-170z" horiz-adv-x="1000" />

<glyph glyph-name="shopping-cart" unicode="&#xe84c;" d="M83 79h37c-25-46-19-105 20-144 22-22 52-35 85-35s62 13 85 35c23 23 35 53 35 86 0 21-5 40-15 58h149c-25-46-19-105 19-144 23-22 53-35 86-35s62 13 85 35c23 23 35 53 35 86 0 21-6 40-16 58h41c18 0 32 14 32 32 0 17-14 31-32 31h-614v62h697c14 0 27 10 31 24l105 385c2 9 1 19-5 27-7 8-16 12-25 12h-803v116c0 18-14 32-32 32s-32-14-32-32v-147-385-125c0-18 14-32 32-32z m460-18c11 11 24 17 40 17 15 0 29-6 40-17 11-11 17-25 17-40 0-16-6-30-17-41-21-22-59-22-80 0-23 23-23 58 0 81z m-358 0c10 11 24 17 40 17 15 0 29-6 40-17 11-11 17-25 17-40 0-16-6-30-17-41-22-22-59-22-80 0-23 23-23 58 0 81z m-70 529h761l-88-323h-673v323z" horiz-adv-x="1000" />

<glyph glyph-name="shutter" unicode="&#xe84d;" d="M314-59c2-1 2-2 4-2 56-25 117-39 182-39 181 0 338 109 409 264 1 2 2 2 3 4 24 56 38 118 38 183 0 182-108 339-264 409-1 1-2 2-4 2-56 25-117 39-181 39-183-1-340-110-411-266-1-2-2-3-2-4-24-56-38-117-38-182 0-181 109-338 264-408z m186 22c-39 0-78 6-114 17l323 324 134-133c-65-123-194-208-343-208z m-1 221l-166 166 164 164 167-166-165-164z m388 166c0-40-6-79-18-115l-327 323 136 135c124-65 209-194 209-343z m-387 387c40 0 78-6 114-17l-326-325-131 132c64 125 193 210 343 210z m-370-274l136-135c0 0 0 0 0 0l188-189-132-132c-124 64-210 193-210 342 1 41 7 79 18 114z" horiz-adv-x="1000" />

<glyph glyph-name="smartphone" unicode="&#xe84e;" d="M286-36l419-64c1 0 3 0 4 0 8 0 15 3 21 8 7 6 11 15 11 24v773c0 16-11 29-27 31l-419 64c-9 1-18-2-25-7-7-7-11-15-11-24v-773c0-17 12-30 27-32z m37 767l355-53v-709l-355 53v709z" horiz-adv-x="1000" />

<glyph glyph-name="speech-bubble" unicode="&#xe84f;" d="M271 466h458c18 0 32 14 32 32s-14 32-32 32h-458c-17 0-31-14-31-32s14-32 31-32z m0-153h458c18 0 32 14 32 32 0 17-14 31-32 31h-458c-17 0-31-14-31-31 0-18 14-32 31-32z m-190-206h103v-104c0-13 7-24 18-29 4-2 9-3 14-3 7 0 14 2 19 6l170 130h514c17 0 31 14 31 31v566c0 17-14 31-31 31h-838c-17 0-31-14-31-31v-565c0-18 14-32 31-32z m32 565h773v-501h-491c-7 0-14-2-20-6l-128-98v72c0 18-14 32-31 32h-103v501z" horiz-adv-x="1000" />

<glyph glyph-name="speedometer" unicode="&#xe850;" d="M818 669c-1 1-2 2-3 3-82 79-192 128-315 128-122 0-233-50-315-130 0-1-1-1-3-1-1-1-1-2-1-3-81-80-131-193-131-316 0-248 202-450 450-450s450 202 450 450c0 123-50 235-131 316 0 1 0 3-1 3z m-318-706c-202 0-369 157-385 355h275c14-47 57-82 109-82s96 35 110 82h275c-15-198-182-355-384-355z m-50 387c0 28 22 50 50 50 28 0 50-22 50-50 0-28-22-50-50-50-28 0-50 22-50 50z m159 32c-6 22-19 42-36 56l86 196c7 16 0 35-16 42-17 7-35 0-42-17l-86-196c-5 1-10 1-15 1-52 0-95-35-109-82h-276c7 83 39 159 91 218l60-59c6-6 14-10 22-10 8 0 17 4 23 10 12 12 12 32 0 45l-60 59c60 51 135 83 217 90v-84c0-18 14-32 32-32 18 0 32 14 32 32v84c82-7 157-39 217-90l-59-59c-12-13-12-33 0-45 6-6 14-10 22-10 8 0 17 4 23 10l60 59c51-59 84-135 90-218h-276z" horiz-adv-x="1000" />

<glyph glyph-name="stats" unicode="&#xe851;" d="M918-37h-805v805c0 18-14 32-32 32s-31-14-31-32v-837c0-17 14-31 31-31h837c18 0 32 14 32 31s-14 32-32 32z m-497 123v457c0 18-14 32-32 32-18 0-32-14-32-32v-457c0-18 14-32 32-32 18 0 32 14 32 32z m-154 0v457c0 18-13 32-31 32s-32-14-32-32v-457c0-18 14-32 32-32s31 14 31 32z m461 0v457c0 18-14 32-32 32s-32-14-32-32v-457c0-18 14-32 32-32s32 14 32 32z m153 0v228c0 18-14 32-31 32-18 0-32-14-32-32v-228c0-18 14-32 32-32 17 0 31 14 31 32z m-307 0v228c0 18-13 32-31 32s-32-14-32-32v-228c0-18 14-32 32-32s31 14 31 32z" horiz-adv-x="1000" />

<glyph glyph-name="store" unicode="&#xe852;" d="M943 500l-1 6c0 0-1 1-1 2l-98 272c-4 12-16 20-30 20h-626c-13 0-26-8-30-20l-97-270c-1-2-1-3-2-5l-3-9c-1-3-1-5-1-8-4-12-5-22-5-33 0-58 37-109 90-127v-397c0-18 14-32 32-32h672c18 0 31 14 31 32v402c46 22 78 69 78 122 0 10-2 20-4 30-1 6-2 11-5 15z m-133-538h-608v359c2 0 4 0 6 0 33 6 62 23 83 48 25-31 63-49 104-49 42 0 80 19 105 49 25-31 63-49 105-49s80 19 104 49c18-22 42-38 70-45 1 0 2 0 2 0 4-1 7-2 11-3 1 0 3 0 5 0 2 0 5-1 8-1 1 0 4-1 5-1v-357z m25 424c-1 0-1 0 0 0-4-1-7-2-10-3-3 0-7 0-10 0-5 0-10 0-14 1-4 1-8 2-11 3-1 0-1 0-2 1-24 10-43 34-45 62 0 1 0 2 0 2 0 1 0 2 0 3 0 18-14 32-32 32s-32-14-32-32c0-1 0-3-1-4 0 0 0-1 0-1-2-29-21-52-45-62-1 0-1 0-2-1-4-1-8-2-12-3-4-1-9-1-14-1-4 0-9 0-13 1-4 1-8 2-11 3-1 0-1 0-2 1-25 10-43 34-46 62 0 1 0 1 0 2 0 1 0 2 0 3 0 18-14 32-32 32-18 0-32-14-32-32 0-1 0-3-1-4 0 0 0-1 0-1-2-29-21-52-45-62-1 0-1 0-2-1-4-1-8-2-12-3-4-1-9-1-14-1-4 0-9 0-14 1-3 1-7 2-11 3-1 0-1 0-2 1-25 10-43 34-45 62 0 1 0 2 0 2 0 1 0 2 0 3 0 18-14 32-32 32s-32-14-32-32c0-1 0-3-1-4 0 0 0-1 0-1-2-29-21-52-46-62 0 0 0 0-1-1-4-1-7-2-11-3-5-1-9-1-14-1-2 0-5 0-8 0 0 0-1 0-3 1-1 0-1 0-2 0-34 6-61 36-61 72 0 6 1 13 4 20 0 1 0 3 0 4l93 258h582l90-252c0 0 1-2 1-3l2-4c0-1 1-3 1-3 2-8 3-14 3-21 0-32-23-60-53-69z" horiz-adv-x="1000" />

<glyph glyph-name="sun" unicode="&#xe853;" d="M500 132c120 0 217 98 217 217s-98 217-217 217-217-97-217-217 97-217 217-217z m0 372c85 0 154-69 154-155 0-85-69-154-154-154s-154 69-154 154c0 86 69 155 154 155z m32 163v100c0 18-14 32-32 32s-32-14-32-32v-100c0-18 14-32 32-32s32 14 32 32z m-64-636v-100c0-17 14-31 32-31s32 14 32 31v100c0 18-14 32-32 32s-32-14-32-32z m279 521l71 70c12 13 12 33 0 45-13 13-33 13-45 0l-71-70c-12-13-12-33 0-45 7-7 14-10 23-10s16 3 22 10z m-565-521c6-6 14-9 23-9 7 0 16 3 22 9l71 71c12 12 12 33 0 45-13 12-33 12-45 0l-71-71c-12-12-12-32 0-45z m768 318c0 18-14 32-32 32h-100c-18 0-32-14-32-32 0-18 14-32 32-32h100c17 0 32 14 32 32z m-868-32h100c18 0 32 14 32 32 0 18-14 32-32 32h-100c-18 0-32-14-32-32 0-18 15-32 32-32z m713-295c8 0 17 3 23 9 12 13 12 33 0 45l-71 71c-12 12-32 12-45 0-12-12-12-33 0-45l71-71c6-6 15-9 22-9z m-497 530c12 12 12 32 0 45l-71 70c-12 13-32 13-45 0-12-12-12-32 0-45l71-70c6-7 14-10 22-10s17 3 23 10z" horiz-adv-x="1000" />

<glyph glyph-name="switch" unicode="&#xe854;" d="M291 109h418c133 0 241 108 241 241s-107 241-241 241h-418c-133 0-241-108-241-241s108-241 241-241z m0 419h418c98 0 178-80 178-178s-80-177-178-177h-418c-98 0-178 79-178 177s80 178 178 178z m0-312c73 0 134 60 134 134 0 74-61 134-134 134-74 0-134-60-134-134 0-74 60-134 134-134z m0 205c39 0 70-32 70-71 0-39-31-70-70-70-39 0-71 31-71 70 0 39 32 71 71 71z" horiz-adv-x="1000" />

<glyph glyph-name="tag" unicode="&#xe855;" d="M940 335l-455 455c-7 7-17 10-26 10l-341-39c-15-2-27-13-29-29l-39-341c0-10 3-19 10-26l455-455c6-7 15-10 23-10 9 0 16 3 23 10l380 380c6 6 9 14 9 23 0 8-3 16-10 22z m-823 65l34 299 299 34 310-309-334-334-309 310z m421-421l-65 65 333 333 65-65-333-333z m-114 621c-23 24-54 37-88 37s-63-13-87-37c-48-48-48-126 0-174 23-23 54-36 87-36s64 13 88 36c23 23 37 54 37 88 0 32-14 63-37 86z m-46-128c-21-22-60-22-83 0-22 22-22 59 0 83 11 11 26 17 41 17s31-6 42-17c10-11 17-26 17-41 0-17-6-31-17-42z" horiz-adv-x="1000" />

<glyph glyph-name="target" unicode="&#xe856;" d="M83 318h70c14-167 149-301 315-315v-70c0-17 14-32 32-32 17 0 32 14 32 32v70c167 14 301 149 315 315h70c17 0 32 14 32 32 0 17-14 32-32 32h-70c-14 167-149 301-315 315v70c0 17-14 32-32 32-17 0-32-14-32-32v-70c-167-14-301-149-315-315h-70c-18 0-32-14-32-32 0-18 15-32 32-32z m261 64h-128c15 132 120 238 252 252v-128c0-17 14-32 32-32 17 0 32 14 32 32v128c132-15 238-120 252-252h-128c-17 0-32-14-32-32 0-17 14-32 32-32h128c-15-132-120-238-252-252v128c0 17-14 32-32 32-17 0-32-14-32-32v-128c-132 15-238 120-252 252h128c17 0 32 14 32 32 0 17-15 32-32 32z" horiz-adv-x="1000" />

<glyph glyph-name="timer" unicode="&#xe857;" d="M95 306c0-223 182-405 405-405s405 182 405 405c0 111-45 212-118 285l32 32 14-15c7-6 14-9 23-9s16 3 22 9c13 13 13 33 0 45l-73 74c-13 12-33 12-45 0-13-13-13-33 0-45l14-15-34-35c-59 44-130 71-207 77v27h70c18 0 32 14 32 32s-14 32-32 32h-209c-18 0-32-14-32-32s14-32 32-32h75v-27c-209-16-374-191-374-403z m405 341c188 0 342-154 342-342 0-188-154-342-342-342-188 0-342 154-342 342 0 189 154 342 342 342z m0-367h136c18 0 31 13 31 31 0 18-13 32-31 32h-104v164c0 17-14 31-32 31-18 0-32-14-32-31v-196c0-18 14-31 32-31z" horiz-adv-x="1000" />

<glyph glyph-name="unlock" unicode="&#xe858;" d="M452 737c138 0 250-112 250-250 0-18 14-32 31-32 18 0 32 14 32 32 0 173-140 313-313 313s-312-141-312-313v-201-355c0-17 14-31 31-31h570c18 0 32 14 32 31v355c0 18-14 32-32 32h-539v169c0 137 113 250 250 250z m257-482v-292h-507v292h507z" horiz-adv-x="1000" />

<glyph glyph-name="up-arrow" unicode="&#xe859;" d="M941 373l-418 418c-6 6-14 9-23 9s-17-3-22-9l-419-418c-12-13-12-33 0-45 6-7 14-10 22-10s17 3 23 10l364 364v-761c0-17 14-31 32-31s32 14 32 31v761l364-364c13-13 33-13 45 0s12 32 0 45z" horiz-adv-x="1000" />

<glyph glyph-name="upload" unicode="&#xe85a;" d="M633 800c-153 0-282-109-310-255-28 10-56 16-86 14-105-4-188-93-188-202 0-106 86-192 192-192 18 0 32 14 32 32s-14 31-32 31c-70 0-129 58-129 129 0 74 58 137 128 140 33 2 63-8 89-28 9-7 21-8 32-3 11 4 18 15 19 27 5 137 116 245 253 245 141 0 255-114 255-255 0-3 0-6-1-9v-5c0-3 0-4 0-7-2-129-109-234-239-234-18 0-32-14-32-31s14-32 32-32c167 0 302 135 302 302 0 1 0 2 0 3 0 5 1 9 1 13 0 175-142 317-318 317z m-152-535c-13 12-33 12-45 0l-206-206c-12-12-12-32 0-45s33-12 45 0l151 152v-235c0-18 14-32 32-32s32 14 32 32v235l150-151c7-6 14-9 23-9 8 0 16 3 22 9 13 13 13 33 0 45l-204 205z" horiz-adv-x="1000" />

<glyph glyph-name="video-camera" unicode="&#xe85b;" d="M749 642h-668c-17 0-31-14-31-31v-521c0-17 14-32 31-32h668c17 0 32 14 32 32v150l115-116c6-6 14-9 23-9 4 0 8 1 12 2 12 5 19 17 19 30v407c0 12-7 24-19 29-12 5-26 3-34-7l-116-115v150c0 17-14 31-32 31z m-32-258v-68-195h-605v459h605v-196z m170 93v-255l-106 106v42l106 107z" horiz-adv-x="1000" />

<glyph glyph-name="video" unicode="&#xe85c;" d="M81-100h169 499 169c18 0 32 14 32 32v837c0 17-14 31-32 31h-837c-17 0-31-14-31-31v-837c0-18 14-32 31-32z m700 837h105v-146h-105v146z m0-209h105v-146h-33-73v146z m0-210h73 34v-145h-106v145z m0-209h105v-146h-105v146z m-499 628h435v-355h-435v355z m0-419h435v-355h-435v355z m-169 419h106v-146h-106v146z m0-209h106v-146h-106v146z m0-210h106v-145h-106v145z m0-209h106v-146h-106v146z" horiz-adv-x="1000" />

<glyph glyph-name="visible" unicode="&#xe85d;" d="M502 569c-221 0-434-210-442-220-6-6-10-14-10-22s4-16 10-23c9-9 221-219 442-219s433 210 441 219c7 7 10 14 10 23s-3 16-10 22c-8 10-220 220-441 220z m0-420c-155 0-314 126-373 179 59 52 218 178 373 178s313-126 372-178c-59-53-218-179-372-179z m-114 179c0-63 51-115 114-115s115 51 115 115-51 114-115 114-114-52-114-114z m165 0c0-28-23-52-51-52-28 0-52 23-52 52s23 51 52 51c28-1 51-24 51-51z" horiz-adv-x="1000" />

<glyph glyph-name="voice-recorder" unicode="&#xe85e;" d="M530 186c118 0 214 97 214 216v21 162c0 119-96 215-214 215-119 0-215-96-215-215v-162-21c0-119 96-216 215-216z m-152 399c0 84 69 152 152 152 84 0 152-68 152-152v-162c0-84-68-152-152-152-83 0-152 68-152 152v162z m459-183c0 18-14 32-32 32s-31-14-31-32c0-135-110-244-244-244s-245 109-245 244c0 18-14 32-31 32s-32-14-32-32c0-159 121-290 276-306v-133h-178c-18 0-32-14-32-32 0-17 14-31 32-31h406c17 0 31 14 31 31 0 18-14 32-31 32h-165v133c155 16 276 147 276 306z" horiz-adv-x="1000" />

<glyph glyph-name="volume" unicode="&#xe85f;" d="M81 109h210c18 0 32 14 32 32v11l369-246c5-4 11-6 17-6 6 0 10 2 15 4 10 6 17 16 17 28v837c0 11-6 22-17 28-10 5-22 4-32-2l-369-247v11c0 18-14 32-32 32h-210c-17 0-31-14-31-32v-418c0-17 14-32 31-32z m242 364l355 236v-719l-355 238v245z m-210 55h146v-38-279-38h-146v355z m806 63c-18 0-32-14-32-32v-418c0-18 14-32 32-32 17 0 31 14 31 32v418c0 17-14 32-31 32z" horiz-adv-x="1000" />

<glyph glyph-name="waiting" unicode="&#xe860;" d="M206-69c0-17 14-31 32-31h524c18 0 32 14 32 31v229c36 55 56 120 56 190 0 70-20 135-56 190v229c0 17-14 31-32 31h-524c-18 0-32-14-32-31v-229c-35-55-56-120-56-190 0-70 21-135 56-190v-229z m524 32h-460v124c61-54 142-87 230-87 88 0 169 34 230 87v-124z m-460 774h460v-124c-61 54-142 87-230 87-88 0-169-34-230-87v124z m230-100c158 0 287-129 287-287 0-158-129-287-287-287-158 0-287 129-287 287 0 158 129 287 287 287z m0-319h114c18 0 32 14 32 32 0 18-14 32-32 32h-82v133c0 18-14 32-32 32-18 0-32-14-32-32v-165c0-18 14-32 32-32z" horiz-adv-x="1000" />

<glyph glyph-name="wifi" unicode="&#xe861;" d="M892 657c9 16 3 36-13 45-115 64-246 98-378 98-134 0-265-34-381-99-16-9-22-29-12-45 6-11 17-17 28-17 6 0 11 2 17 4 106 60 226 91 348 91 121 0 241-31 346-90 17-9 37-3 45 13z m-131-212c11 0 22 6 28 17 9 15 3 36-12 45-84 47-179 73-276 73-96 0-192-25-275-73-17-9-22-29-13-45 10-15 30-21 45-12 74 42 158 64 243 64 85 0 170-23 243-65 5-3 11-4 17-4z m-83-173c8 16 3 36-14 45-101 56-232 55-333-3-15-10-21-30-12-45 6-11 17-17 28-17 6 0 12 2 17 5 81 47 186 47 268 2 17-9 37-4 46 13z m-297-253c0-66 54-119 120-119s119 53 119 119-53 119-119 119-120-53-120-119z m173 0c0-30-24-53-53-53-30 0-53 24-53 53 0 29 24 53 53 53 29 0 53-24 53-53z" horiz-adv-x="1000" />

<glyph glyph-name="zoom-out" unicode="&#xe862;" d="M400 800c-193 0-350-157-350-350 0-193 157-350 350-350 85 0 163 31 224 82l272-272c6-7 14-10 23-10 7 0 16 3 22 10 13 12 13 32 0 45l-272 271c50 60 81 139 81 224 0 193-157 350-350 350z m0-637c-158 0-287 129-287 287 0 158 129 287 287 287 158 0 287-129 287-287 0-158-129-287-287-287z m207 319h-414c-18 0-32-14-32-32s14-32 32-32h414c18 0 32 14 32 32s-14 32-32 32z" horiz-adv-x="1000" />

<glyph glyph-name="zoom" unicode="&#xe863;" d="M400 100c85 0 163 31 223 82l272-272c6-6 14-9 22-9 8 0 16 3 23 9 12 13 12 33 0 45l-272 272c51 60 82 139 82 223 0 193-157 350-350 350-192 0-350-158-350-350 0-193 158-350 350-350z m0 636c158 0 286-129 286-286 0-158-128-286-286-286-158 0-286 129-286 286 0 157 129 286 286 286z m-32-493c0-18 14-32 32-32 18 0 32 14 32 32v175h175c18 0 32 14 32 32s-14 32-32 32h-175v175c0 18-14 32-32 32-18 0-32-14-32-32v-175h-175c-18 0-32-14-32-32s14-32 32-32h175v-175z" horiz-adv-x="1000" />

<glyph glyph-name="clock-2" unicode="&#xe864;" d="M500-150c-276 0-500 224-500 500 0 276 224 500 500 500s500-224 500-500c0-276-224-500-500-500z m0 943c-244 0-443-199-443-443 0-244 199-443 443-443 244 0 443 199 443 443 0 244-199 443-443 443z m153-625c-7 0-14 3-20 9l-153 153c-6 5-9 12-9 20v324c0 16 13 29 29 29 16 0 29-13 29-29v-312l145-145c11-11 11-29 0-40-6-6-13-9-21-9z" horiz-adv-x="1000" />

<glyph glyph-name="placeholder-1" unicode="&#xe865;" d="M500-150c-8 0-15 3-21 9-15 16-368 393-368 602 0 214 174 389 389 389 215 0 390-175 390-389 0-209-354-586-369-602-6-6-13-9-21-9z m0 943c-183 0-332-149-332-332 0-145 223-420 332-540 109 120 332 395 332 540 0 183-149 332-332 332z m0-454c-91 0-165 74-165 164 0 91 74 165 165 165 91 0 165-74 165-165 0-90-74-164-165-164z m0 272c-59 0-108-48-108-108 0-59 49-107 108-107 59 0 108 48 108 107 0 60-49 108-108 108z" horiz-adv-x="1000" />

<glyph glyph-name="right-quote-sign" unicode="&#xe866;" d="M949 791h-312c-28 0-51-23-51-51v-312c0-28 23-51 51-51h149c-2-82-21-147-57-196-28-39-71-71-128-96-26-12-38-43-26-69l37-78c12-25 42-36 67-25 68 29 125 66 172 112 57 55 96 117 117 186 21 69 32 164 32 284v245c0 28-23 51-51 51z m-840-878c67 29 124 66 171 112 58 55 97 117 118 185 21 69 32 164 32 285v245c0 28-23 51-52 51h-311c-29 0-52-23-52-51v-312c0-28 23-51 52-51h149c-2-82-21-147-57-196-28-39-71-71-129-96-26-12-37-43-25-69l37-78c12-25 41-36 67-25z" horiz-adv-x="1000" />

<glyph glyph-name="telephone-(1)" unicode="&#xe867;" d="M966 127c-42 42-84 84-125 124-22 22-48 34-75 34-27 0-52-12-74-34l-6-5c-22-22-45-45-67-68-4 3-9 5-13 7-10 5-20 10-29 15-66 42-127 98-186 170-29 36-49 67-63 99 20 19 39 38 58 57 4 5 9 10 14 15 46 46 46 106 0 152-14 15-29 29-43 43-6 6-12 12-18 18-7 7-13 13-20 20-14 14-28 29-43 43-22 22-48 33-75 33s-53-11-75-33c-10-11-21-21-31-31-15-15-30-31-46-46-29-27-45-62-48-103-5-65 13-123 29-167 37-99 93-192 172-286 98-117 217-210 352-276 74-36 138-54 200-58 4 0 9 0 13 0 53 0 96 19 128 55 15 16 30 30 45 46 9 8 17 16 25 24 46 46 46 106 1 152z m-40-113c-8-8-16-16-24-23-16-16-32-32-48-49-24-27-54-39-97-36-54 3-111 19-179 52-128 63-240 150-333 261-75 89-128 177-162 270-22 57-29 101-26 143 2 27 12 49 31 67 16 16 31 32 47 47 10 10 20 21 30 31 8 8 21 17 36 17 15 0 28-9 36-17 14-14 29-29 43-43 6-6 13-13 19-19 6-7 13-13 19-19 14-14 28-28 42-42 25-25 25-49 0-74-5-5-10-10-14-15-20-20-41-41-62-61-10-10-20-27-10-51 16-39 39-76 73-118 63-77 129-137 200-182 11-7 23-13 34-18 6-3 12-6 18-10 8-4 15-6 23-6l0 0c11 0 22 6 32 16 23 24 48 48 71 71l6 6c7 7 20 17 35 17 15 0 28-10 36-17 40-41 82-82 124-125 24-23 24-49 0-73z" horiz-adv-x="1000" />
</font>
</defs>
</svg>
